PathFileType	4	(X/Y/Z)	Walk9.trc
DataRate	CameraRate	NumFrames	NumMarkers	Units	OrigDataRate	OrigDataStartFrame	OrigNumFrames
200.000000	200.000000	8	59	mm	200.000000	305	523
Frame#	Times		RFHD		RACR1		RUA1		RElbowM		RFA1		RWRU		LACR1		LUA1		LFA1		LWRU		RTH1		LTH2		LFHD		LTB2		RBack		RTH2		LTH4		LASI		CLAV		RTH3		RTB3		LCAR		RTB2		RTB1		LWRR		LTH3		RCAR		C7		RTB4		RElbow		RASI		T10		LBHD		LLFC		RWRR		RBHD		STRN		RPSI		LTB4		LToe		LTB1		LTH1		LElbowM		LElbow		LMMAL		RTH4		LPSI		LCAL		RMT5		LTB3		LMT5		LMT1		RLFC		LLMAL		RMT1		RToe		RCAL		RLMAL		RMMAL
			X1	Y1	Z1	X2	Y2	Z2	X3	Y3	Z3	X4	Y4	Z4	X5	Y5	Z5	X6	Y6	Z6	X7	Y7	Z7	X8	Y8	Z8	X9	Y9	Z9	X10	Y10	Z10	X11	Y11	Z11	X12	Y12	Z12	X13	Y13	Z13	X14	Y14	Z14	X15	Y15	Z15	X16	Y16	Z16	X17	Y17	Z17	X18	Y18	Z18	X19	Y19	Z19	X20	Y20	Z20	X21	Y21	Z21	X22	Y22	Z22	X23	Y23	Z23	X24	Y24	Z24	X25	Y25	Z25	X26	Y26	Z26	X27	Y27	Z27	X28	Y28	Z28	X29	Y29	Z29	X30	Y30	Z30	X31	Y31	Z31	X32	Y32	Z32	X33	Y33	Z33	X34	Y34	Z34	X35	Y35	Z35	X36	Y36	Z36	X37	Y37	Z37	X38	Y38	Z38	X39	Y39	Z39	X40	Y40	Z40	X41	Y41	Z41	X42	Y42	Z42	X43	Y43	Z43	X44	Y44	Z44	X45	Y45	Z45	X46	Y46	Z46	X47	Y47	Z47	X48	Y48	Z48	X49	Y49	Z49	X50	Y50	Z50	X51	Y51	Z51	X52	Y52	Z52	X53	Y53	Z53	X54	Y54	Z54	X55	Y55	Z55	X56	Y56	Z56	X57	Y57	Z57	X58	Y58	Z58	X59	Y59	Z59

305	1.525	-267.99	1416.3	7.0098	-372.03	1223.8	121.99	-372.49	1086.4	210.49	-437.1	926.34	177.39	-319.99	849.44	256.11	-328.12	749.49	282.04	-366.54	1198	-242.56	-355.93	1033.6	-308.55	-341.37	825.56	-360.51	-358.64	717.56	-387.03	-363.83	631.83	180.95	-291.82	586.47	-198.15	-257.15	1427	-88.457	-302.22	213.03	-141.61	-487.48	1152.2	63.983	-305.28	554.28	145.94	-341.8	568.32	-225.09	-306.78	814.44	-193.59	-291	1180.2	-53.234	-355.54	462.29	148.11	-554.89	173.28	46.157	-324.1	667.68	-397.96	-520.27	253.58	109.37	-418.5	271.69	84.34	-307.96	713.78	-349.07	-330.38	486.34	-194.9	-274.7	700.51	271.26	-433.57	1265.3	-61.001	-490.71	224.26	64.486	-389.01	962.56	250.49	-305.06	830.45	127.05	-521.63	1066.7	-37.197	-386.02	1353.7	-120.54	-295.06	399.98	-156.35	-293.03	753.44	218.18	-399.55	1347.9	11.721	-241.46	1075.3	-50.226	-558.03	835.23	28.609	-283.75	214.46	-82.377	-165.27	29.48	-74.082	-272.41	301.55	-89.109	-354.55	651.68	-245.76	-412.89	892.93	-251.03	-392.15	917.77	-319.57	-318.4	72.891	-31.017	-361.44	546.99	166.42	-568.75	841.18	-78.036	-382.53	41.924	-63.654	-635.67	70.289	82.43	-287.55	131.55	-77.059	-259.53	19.577	-133.13	-215.4	33.805	-48.387	-396.3	380.7	130.81	-340.25	57.137	-108.76	-599.18	57.288	1.3325	-571.94	30.229	43.635	-682.31	200.59	10.927	-610.71	165.02	-11.238	-641.81	168.9	65.46
306	1.53	-262.47	1417.1	6.6355	-367.04	1224.7	121.71	-367.58	1087.4	210.34	-432.66	927.52	176.94	-316.21	850.04	255.99	-324.86	750.17	282.02	-360.85	1198.7	-242.74	-349.06	1034.3	-308.47	-332.72	826.27	-359.75	-348.22	717.92	-385.78	-357.13	632.71	180.67	-288.1	586.16	-198.54	-251.52	1427.7	-88.836	-301.25	212.82	-141.75	-482.29	1153	63.527	-297.21	555.98	145.83	-338.35	568.44	-225.3	-301.82	815.38	-193.8	-285.61	1181	-53.365	-346.02	463.18	148.16	-544.12	174.61	46.517	-312.86	668.53	-396.14	-509.31	254.92	109.64	-407.62	272.91	84.428	-297.76	715.09	-347.43	-327.55	486.39	-195.04	-271.98	700.45	270.89	-428.19	1266.1	-61.364	-479.94	225.54	64.707	-384.63	963.5	250.17	-299.61	831.25	126.88	-516.18	1067.5	-37.491	-380.48	1354.5	-120.95	-292.8	399.72	-156.5	-289.95	753.75	218	-394.15	1348.9	11.306	-236.15	1076.1	-50.537	-552.62	836.02	28.585	-282.68	214.16	-82.554	-165.21	29.544	-73.985	-270.69	301.18	-89.325	-350.5	651.95	-245.9	-406.17	893.6	-251.26	-384.99	918.24	-319.68	-318.31	72.888	-30.999	-353.31	547.92	166.35	-563.48	842.28	-78.051	-382.56	41.971	-63.686	-624.51	72.303	83.818	-287.07	131.28	-77.167	-259.54	19.627	-133.14	-215.46	33.798	-48.312	-385.72	381.72	130.87	-340.24	57.183	-108.75	-587.48	58.676	3.2075	-560.48	30.971	45.915	-671.85	201.51	11.105	-599.98	166.13	-10.808	-631.12	170.44	65.919
307	1.535	-256.97	1417.9	6.3025	-362.07	1225.6	121.47	-362.7	1088.4	210.24	-428.27	928.67	176.62	-312.41	850.62	255.91	-321.55	750.83	282.03	-355.21	1199.4	-242.91	-342.23	1035	-308.37	-324.06	827	-358.97	-337.74	718.35	-384.5	-350.51	633.62	180.39	-284.45	585.85	-198.9	-245.91	1428.4	-89.173	-300.29	212.6	-141.88	-477.09	1153.8	63.087	-289.29	557.7	145.69	-334.96	568.55	-225.48	-296.94	816.23	-193.99	-280.23	1181.9	-53.463	-336.67	464.14	148.14	-533.09	175.75	46.802	-301.55	669.48	-394.3	-498.21	256.11	109.81	-396.65	274.2	84.37	-287.54	716.47	-345.75	-324.76	486.43	-195.15	-269.2	700.41	270.52	-422.79	1266.8	-61.684	-468.99	226.73	64.82	-380.24	964.39	249.92	-294.22	832.08	126.77	-510.73	1068.2	-37.779	-374.96	1355.3	-121.32	-290.58	399.46	-156.63	-286.85	754.06	217.83	-388.74	1349.9	10.928	-230.83	1077	-50.758	-547.26	836.87	28.519	-281.63	213.87	-82.723	-165.13	29.594	-73.895	-268.99	300.81	-89.525	-346.51	652.19	-246.01	-399.5	894.24	-251.52	-377.85	918.7	-319.81	-318.21	72.886	-30.976	-345.31	548.9	166.23	-558.23	843.38	-78.096	-382.57	42.028	-63.716	-612.74	74.027	85.203	-286.6	131.02	-77.27	-259.56	19.668	-133.14	-215.5	33.783	-48.24	-375.2	382.86	130.84	-340.21	57.227	-108.73	-575.21	59.858	5.034	-548.29	31.746	48.128	-661.22	201.91	11.239	-588.98	166.9	-10.417	-620.14	171.62	66.342
308	1.54	-251.49	1418.7	6.0101	-357.09	1226.4	121.28	-357.85	1089.3	210.17	-423.92	929.77	176.4	-308.59	851.16	255.88	-318.18	751.46	282.07	-349.6	1200.2	-243.05	-335.45	1035.7	-308.25	-315.39	827.77	-358.16	-327.22	718.84	-383.19	-343.98	634.55	180.11	-280.85	585.54	-199.24	-240.31	1429	-89.468	-299.34	212.4	-141.99	-471.88	1154.5	62.665	-281.51	559.45	145.51	-331.61	568.65	-225.62	-292.15	817.02	-194.19	-274.85	1182.7	-53.529	-327.5	465.18	148.06	-521.81	176.69	47.019	-290.19	670.55	-392.42	-486.99	257.14	109.9	-385.61	275.52	84.181	-277.3	717.93	-344.04	-322.01	486.46	-195.23	-266.34	700.39	270.16	-417.37	1267.6	-61.962	-457.87	227.84	64.837	-375.83	965.25	249.74	-288.9	832.94	126.73	-505.28	1069	-38.063	-369.44	1356.1	-121.65	-288.4	399.2	-156.72	-283.73	754.37	217.69	-383.34	1350.8	10.589	-225.5	1077.8	-50.888	-541.96	837.77	28.412	-280.59	213.58	-82.877	-165.03	29.627	-73.81	-267.32	300.44	-89.701	-342.58	652.41	-246.11	-392.86	894.84	-251.82	-370.73	919.16	-319.95	-318.11	72.881	-30.947	-337.43	549.94	166.09	-553	844.47	-78.174	-382.58	42.095	-63.742	-600.41	75.437	86.552	-286.13	130.76	-77.363	-259.56	19.702	-133.14	-215.54	33.761	-48.17	-364.72	384.11	130.71	-340.18	57.272	-108.7	-562.41	60.825	6.7812	-535.42	32.537	50.238	-650.4	201.81	11.334	-577.72	167.34	-10.066	-608.88	172.43	66.726
309	1.545	-246.02	1419.4	5.7577	-352.09	1227.2	121.14	-353.03	1090.2	210.15	-419.61	930.83	176.29	-304.74	851.68	255.88	-314.77	752.07	282.13	-344.03	1200.8	-243.18	-328.74	1036.4	-308.12	-306.72	828.57	-357.33	-316.66	719.39	-381.84	-337.51	635.5	179.85	-277.28	585.22	-199.56	-234.74	1429.7	-89.721	-298.39	212.2	-142.09	-466.65	1155.2	62.264	-273.86	561.2	145.32	-328.29	568.73	-225.74	-287.43	817.74	-194.39	-269.46	1183.5	-53.566	-318.49	466.28	147.94	-510.3	177.41	47.176	-278.77	671.73	-390.52	-475.65	258	109.91	-374.49	276.87	83.87	-267.05	719.47	-342.3	-319.28	486.49	-195.28	-263.41	700.39	269.82	-411.94	1268.3	-62.2	-446.59	228.84	64.767	-371.39	966.08	249.61	-283.65	833.82	126.73	-499.83	1069.7	-38.345	-363.93	1356.9	-121.94	-286.25	398.93	-156.8	-280.57	754.67	217.56	-377.93	1351.7	10.288	-220.16	1078.6	-50.928	-536.71	838.72	28.264	-279.55	213.29	-83.014	-164.91	29.643	-73.73	-265.66	300.08	-89.851	-338.67	652.61	-246.19	-386.24	895.4	-252.14	-363.64	919.6	-320.11	-317.99	72.875	-30.912	-329.67	551	165.92	-547.79	845.55	-78.283	-382.58	42.172	-63.764	-587.53	76.52	87.842	-285.66	130.51	-77.441	-259.56	19.729	-133.14	-215.56	33.729	-48.101	-354.28	385.43	130.5	-340.13	57.316	-108.67	-549.12	61.573	8.4222	-521.92	33.326	52.216	-639.41	201.2	11.395	-566.19	167.44	-9.7582	-597.36	172.86	67.069
310	1.55	-240.56	1420.2	5.5445	-347.08	1227.9	121.03	-348.24	1091	210.15	-415.33	931.84	176.27	-300.85	852.16	255.91	-311.31	752.66	282.21	-338.47	1201.5	-243.29	-322.1	1037.1	-307.97	-298.05	829.4	-356.48	-306.09	720.01	-380.47	-331.12	636.44	179.59	-273.75	584.89	-199.86	-229.18	1430.4	-89.933	-297.44	212.01	-142.16	-461.41	1155.9	61.887	-266.33	562.96	145.11	-324.99	568.8	-225.82	-282.76	818.39	-194.6	-264.08	1184.3	-53.577	-309.63	467.42	147.77	-498.57	177.92	47.276	-267.32	673.03	-388.59	-464.21	258.7	109.85	-363.31	278.23	83.448	-256.81	721.08	-340.52	-316.56	486.51	-195.31	-260.41	700.42	269.51	-406.49	1269	-62.398	-435.15	229.74	64.615	-366.92	966.86	249.54	-278.46	834.73	126.79	-494.39	1070.5	-38.625	-358.42	1357.6	-122.19	-284.12	398.65	-156.84	-277.38	754.96	217.45	-372.52	1352.6	10.025	-214.82	1079.4	-50.881	-531.52	839.71	28.075	-278.52	213	-83.129	-164.77	29.642	-73.655	-264.02	299.72	-89.969	-334.79	652.79	-246.25	-379.66	895.92	-252.48	-356.57	920.04	-320.28	-317.86	72.866	-30.871	-322.02	552.07	165.72	-542.59	846.63	-78.425	-382.57	42.259	-63.78	-574.15	77.268	89.049	-285.19	130.27	-77.501	-259.55	19.752	-133.13	-215.58	33.689	-48.032	-343.88	386.82	130.21	-340.08	57.362	-108.63	-535.37	62.104	9.9346	-507.84	34.094	54.035	-628.24	200.09	11.427	-554.42	167.22	-9.4957	-585.58	172.91	67.367
311	1.555	-235.12	1420.9	5.3696	-342.05	1228.6	120.95	-343.47	1091.9	210.18	-411.06	932.81	176.35	-296.93	852.62	255.97	-307.8	753.22	282.31	-332.94	1202.1	-243.38	-315.53	1037.7	-307.81	-289.4	830.26	-355.59	-295.5	720.7	-379.07	-324.8	637.37	179.35	-270.23	584.56	-200.14	-223.64	1431.1	-90.107	-296.47	211.82	-142.21	-456.14	1156.5	61.534	-258.92	564.72	144.89	-321.7	568.86	-225.87	-278.13	818.99	-194.82	-258.7	1185	-53.565	-300.9	468.6	147.56	-486.63	178.2	47.319	-255.86	674.46	-386.64	-452.68	259.23	109.7	-352.07	279.58	82.923	-246.59	722.77	-338.72	-313.84	486.52	-195.32	-257.34	700.47	269.24	-401.02	1269.7	-62.559	-423.58	230.52	64.387	-362.42	967.62	249.53	-273.33	835.64	126.89	-488.94	1071.2	-38.905	-352.91	1358.3	-122.41	-281.99	398.38	-156.86	-274.15	755.24	217.36	-367.12	1353.4	9.7984	-209.46	1080.1	-50.748	-526.37	840.73	27.846	-277.49	212.72	-83.222	-164.62	29.626	-73.582	-262.39	299.36	-90.057	-330.91	652.94	-246.29	-373.1	896.4	-252.83	-349.52	920.48	-320.46	-317.72	72.854	-30.825	-314.48	553.14	165.51	-537.4	847.69	-78.597	-382.55	42.358	-63.79	-560.3	77.68	90.156	-284.72	130.02	-77.542	-259.54	19.771	-133.12	-215.58	33.639	-47.963	-333.51	388.24	129.84	-340.01	57.408	-108.58	-521.21	62.422	11.301	-493.22	34.826	55.673	-616.88	198.52	11.436	-542.41	166.68	-9.2825	-573.57	172.58	67.619
312	1.56	-229.68	1421.6	5.2318	-336.98	1229.2	120.9	-338.73	1092.7	210.24	-406.79	933.75	176.51	-292.98	853.06	256.04	-304.24	753.75	282.44	-327.42	1202.7	-243.47	-309.03	1038.4	-307.64	-280.77	831.17	-354.69	-284.92	721.47	-377.63	-318.54	638.29	179.12	-266.72	584.22	-200.42	-218.12	1431.7	-90.244	-295.49	211.64	-142.25	-450.86	1157.1	61.209	-251.6	566.48	144.68	-318.4	568.9	-225.89	-273.54	819.53	-195.05	-253.31	1185.7	-53.53	-292.28	469.81	147.32	-474.49	178.26	47.306	-244.38	676.01	-384.66	-441.06	259.57	109.49	-340.78	280.92	82.306	-236.4	724.54	-336.89	-311.12	486.53	-195.31	-254.19	700.55	269	-395.53	1270.4	-62.686	-411.87	231.17	64.086	-357.89	968.34	249.55	-268.26	836.56	127.03	-483.51	1071.9	-39.186	-347.42	1359	-122.59	-279.86	398.09	-156.85	-270.88	755.52	217.31	-361.71	1354.1	9.6071	-204.08	1080.8	-50.533	-521.27	841.77	27.581	-276.46	212.44	-83.292	-164.45	29.595	-73.513	-260.76	299	-90.113	-327.03	653.07	-246.32	-366.56	896.83	-253.2	-342.51	920.91	-320.65	-317.57	72.838	-30.773	-307.02	554.2	165.27	-532.22	848.74	-78.8	-382.52	42.469	-63.793	-546.01	77.76	91.149	-284.24	129.78	-77.562	-259.52	19.788	-133.1	-215.58	33.583	-47.894	-323.19	389.66	129.4	-339.93	57.455	-108.53	-506.64	62.535	12.508	-478.11	35.507	57.115	-605.32	196.49	11.428	-530.17	165.85	-9.1214	-561.33	171.87	67.823
